<svg viewBox="0 0 89 34" xmlns="http://www.w3.org/2000/svg" fill="currentColor"><path d="M8.60911 2.45454V33H0.376154V2.45454H8.60911ZM21.0368 2.45454V33H12.8039V2.45454H21.0368ZM25.2316 33V10.0909H33.4646V33H25.2316ZM29.3481 7.70454C28.2345 7.70454 27.2799 7.33665 26.4845 6.60085C25.689 5.86506 25.2913 4.98011 25.2913 3.94602C25.2913 2.91193 25.689 2.02699 26.4845 1.29119C27.2799 0.555397 28.2345 0.1875 29.3481 0.1875C30.4717 0.1875 31.4262 0.555397 32.2117 1.29119C33.0072 2.02699 33.4049 2.91193 33.4049 3.94602C33.4049 4.98011 33.0072 5.86506 32.2117 6.60085C31.4262 7.33665 30.4717 7.70454 29.3481 7.70454ZM37.6594 33V10.0909H45.8923V33H37.6594ZM41.7758 7.70454C40.6622 7.70454 39.7077 7.33665 38.9122 6.60085C38.1167 5.86506 37.719 4.98011 37.719 3.94602C37.719 2.91193 38.1167 2.02699 38.9122 1.29119C39.7077 0.555397 40.6622 0.1875 41.7758 0.1875C42.8994 0.1875 43.854 0.555397 44.6395 1.29119C45.4349 2.02699 45.8327 2.91193 45.8327 3.94602C45.8327 4.98011 45.4349 5.86506 44.6395 6.60085C43.854 7.33665 42.8994 7.70454 41.7758 7.70454ZM71.0274 17.5483H63.4507C63.411 17.081 63.2469 16.6783 62.9585 16.3402C62.6702 16.0021 62.2973 15.7436 61.8399 15.5646C61.3925 15.3757 60.8953 15.2812 60.3485 15.2812C59.6425 15.2812 59.036 15.4105 58.5289 15.669C58.0218 15.9276 57.7732 16.2955 57.7831 16.7727C57.7732 17.1108 57.9173 17.424 58.2156 17.7124C58.5239 18.0007 59.1155 18.2244 59.9905 18.3835L64.6439 19.2188C66.9905 19.6463 68.7355 20.3672 69.879 21.3814C71.0324 22.3857 71.6141 23.733 71.624 25.4233C71.6141 27.054 71.1269 28.4709 70.1624 29.674C69.2078 30.8672 67.9003 31.7919 66.2398 32.4482C64.5892 33.0945 62.705 33.4176 60.5871 33.4176C57.0871 33.4176 54.3477 32.7017 52.3691 31.2699C50.4003 29.8381 49.3016 27.9489 49.0729 25.6023H57.2462C57.3556 26.3281 57.7135 26.8899 58.32 27.2876C58.9365 27.6754 59.7121 27.8693 60.6468 27.8693C61.4024 27.8693 62.0239 27.7401 62.5111 27.4815C63.0083 27.223 63.2618 26.8551 63.2718 26.3778C63.2618 25.9403 63.0431 25.5923 62.6155 25.3338C62.1979 25.0753 61.5416 24.8665 60.6468 24.7074L56.5899 23.9915C54.2533 23.5838 52.5033 22.8082 51.3399 21.6648C50.1766 20.5213 49.5999 19.0497 49.6098 17.25C49.5999 15.6591 50.0175 14.3118 50.8627 13.2081C51.7178 12.0945 52.9358 11.2493 54.5168 10.6726C56.1077 10.0859 57.9919 9.79261 60.1695 9.79261C63.4806 9.79261 66.0906 10.4787 67.9997 11.8509C69.9188 13.223 70.928 15.1222 71.0274 17.5483ZM88.4404 10.0909V16.0568H73.3467V10.0909H88.4404ZM76.27 4.60227H84.5029V25.6321C84.5029 25.9503 84.5576 26.2188 84.667 26.4375C84.7764 26.6463 84.9454 26.8054 85.1741 26.9148C85.4028 27.0142 85.6961 27.0639 86.0541 27.0639C86.3026 27.0639 86.591 27.0341 86.9191 26.9744C87.2572 26.9148 87.5058 26.8651 87.6649 26.8253L88.858 32.6122C88.4901 32.7216 87.9632 32.8558 87.2771 33.0149C86.6009 33.174 85.7955 33.2784 84.8609 33.3281C82.9717 33.4276 81.3857 33.2337 80.1031 32.7464C78.8204 32.2493 77.8559 31.4687 77.2096 30.4048C76.5633 29.3409 76.2501 28.0085 76.27 26.4077V4.60227Z"/></svg>
