<svg viewBox="0 0 77 34" xmlns="http://www.w3.org/2000/svg"><path d="m8.32298 2.45454v30.54546h-8.2329587v-30.54546zm12.42772 0v30.54546h-8.2329v-30.54546zm4.1948 30.54546v-22.9091h8.2329v22.9091zm4.1165-25.29546c-1.1137 0-2.0682-.36789-2.8637-1.10369-.7954-.73579-1.1932-1.62074-1.1932-2.65483s.3978-1.91903 1.1932-2.65483c.7955-.735793 1.75-1.10369 2.8637-1.10369 1.1235 0 2.0781.367897 2.8636 1.10369.7955.7358 1.1932 1.62074 1.1932 2.65483s-.3977 1.91904-1.1932 2.65483c-.7855.7358-1.7401 1.10369-2.8636 1.10369zm29.2516 9.84376h-7.5767c-.0398-.4673-.2039-.87-.4922-1.2081-.2884-.3381-.6612-.5966-1.1186-.7756-.4475-.1889-.9446-.2834-1.4915-.2834-.706 0-1.3125.1293-1.8196.3878-.5071.2586-.7557.6265-.7458 1.1037-.0099.3381.1343.6513.4326.9397.3082.2883.8998.512 1.7748.6711l4.6534.8353c2.3466.4275 4.0917 1.1484 5.2351 2.1626 1.1534 1.0043 1.7351 2.3516 1.7451 4.0419-.01 1.6307-.4972 3.0476-1.4617 4.2507-.9545 1.1932-2.2621 2.1179-3.9226 2.7742-1.6505.6463-3.5348.9694-5.6527.9694-3.5 0-6.2393-.7159-8.218-2.1477-1.9688-1.4318-3.0675-3.321-3.2962-5.6676h8.1733c.1094.7258.4673 1.2876 1.0739 1.6853.6165.3878 1.392.5817 2.3267.5817.7557 0 1.3771-.1292 1.8643-.3878.4972-.2585.7507-.6264.7607-1.1037-.01-.4375-.2287-.7855-.6563-1.044-.4176-.2585-1.0738-.4673-1.9687-.6264l-4.0568-.7159c-2.3367-.4077-4.0867-1.1833-5.25-2.3267-1.1634-1.1435-1.7401-2.6151-1.7301-4.4148-.01-1.5909.4076-2.9382 1.2528-4.0419.8551-1.1136 2.0731-1.9588 3.6541-2.5355 1.5909-.5867 3.4752-.87999 5.6527-.87999 3.3111 0 5.9212.68609 7.8303 2.05829 1.919 1.3721 2.9282 3.2713 3.0277 5.6974zm17.413-7.4574v5.9659h-15.0938v-5.9659zm-12.1705-5.48863h8.233v21.02983c0 .3182.0547.5867.164.8054.1094.2088.2784.3679.5071.4773.2287.0994.522.1491.88.1491.2486 0 .5369-.0298.8651-.0895.338-.0596.5866-.1093.7457-.1491l1.1932 5.7869c-.3679.1094-.8949.2436-1.581.4027-.6761.1591-1.4815.2635-2.4162.3132-1.8892.0995-3.4751-.0944-4.7578-.5817-1.2827-.4971-2.2472-1.2777-2.8935-2.3416s-.9595-2.3963-.9396-3.9971z" fill="currentColor"/></svg>
